<svg xmlns="http://www.w3.org/2000/svg" width="256" height="256" viewBox="0 0 100 100"><rect width="100" height="100" rx="50" fill="#4a90e2"></rect><path fill="#fff" d="M52.30 81.50L27.45 81.50L27.45 18.50L49.01 18.50Q57.74 18.50 62.40 22.35Q67.06 26.20 67.06 33.80L67.06 33.80Q67.06 39.20 64.67 43.07Q62.28 46.94 57.52 48.38L57.52 48.38L58.28 46.63Q65.25 47.93 68.90 52.16Q72.55 56.39 72.55 63.55L72.55 63.55Q72.55 71.92 67.14 76.71Q61.74 81.50 52.30 81.50L52.30 81.50ZM37.27 52.88L37.27 72.68L51.17 72.68Q56.16 72.68 59.16 70.36Q62.15 68.05 62.15 62.87L62.15 62.87Q62.15 57.25 59.07 55.06Q55.98 52.88 51.17 52.88L51.17 52.88L37.27 52.88ZM37.27 27.27L37.27 44.06L47.66 44.06Q52.07 44.06 54.61 42.28Q57.16 40.51 57.16 35.69L57.16 35.69Q57.16 30.83 54.61 29.05Q52.07 27.27 47.66 27.27L47.66 27.27L37.27 27.27Z"></path></svg>